<svg width="51" height="57" viewBox="0 0 51 57" fill="none" xmlns="http://www.w3.org/2000/svg">
<path d="M47.537 22.4309C48.7516 25.3581 49.3751 28.4961 49.3717 31.6647C49.3682 34.8332 48.7379 37.9699 47.517 40.8945C42.402 53.1969 28.239 59.0246 15.904 53.9029C3.57099 48.7832 -2.27101 34.6744 2.86299 22.372C7.99699 10.0695 22.141 4.24285 34.476 9.36354" stroke="#605BFF" stroke-width="2" stroke-miterlimit="10" stroke-linecap="round" stroke-linejoin="round"/>
<path d="M32.967 1.77051L35.82 10.1885L27.4 13.0334M24.319 40.4712H13.999V39.8321C13.999 38.7077 14.426 37.6732 14.946 37.0351C16.716 34.7234 21.907 32.1381 23.312 29.7955C23.739 29.0665 24.014 28.2756 24.014 27.333C24.014 25.9949 23.617 24.8695 22.793 24.0477C21.999 23.1969 20.9 22.7705 19.495 22.7705C18.64 22.7705 17.846 22.9842 17.144 23.3796C16.442 23.7751 15.862 24.3223 15.464 25.0522C15.037 25.7513 14.854 26.5421 14.854 27.3939C14.854 27.6975 14.854 27.9112 14.884 28.0629M33.031 22.7406C33.031 22.7406 30.833 28.6102 26.681 34.1762H39.016M35.749 26.2995V40.4712" stroke="#605BFF" stroke-width="2" stroke-miterlimit="10" stroke-linecap="round" stroke-linejoin="round"/>
</svg>
