<svg width="58" height="61" viewBox="0 0 58 61" fill="none" xmlns="http://www.w3.org/2000/svg">
<path d="M34.837 15.5017C33.2724 15.0077 31.641 14.7571 30 14.7588C21.163 14.7588 14 21.9116 14 30.736C14 35.3055 15.92 39.4266 19 42.3384L34.837 15.5017ZM46 30.736C46 39.5604 38.837 46.7132 30 46.7132C27.385 46.7172 24.8092 46.0782 22.5 44.8528C24.5 43.7174 31 40.2224 35 33.7317C39 27.241 39 19.7517 39 17.5248C43.225 20.4007 46 25.2438 46 30.736Z" stroke="white" stroke-width="2" stroke-miterlimit="10" stroke-linecap="round" stroke-linejoin="round"/>
<path d="M47 49.7089H51M29 0.778809V7.76882V0.778809ZM56 26.7417V32.7332V26.7417ZM9 9.76597L14 14.7588L9 9.76597ZM0 29.7374H7H0ZM9 50.7075L14 45.7146L9 50.7075ZM54 29.7374H58H54ZM49 8.7674V14.7588V8.7674ZM47 11.7631H51H47ZM29 54.7018V60.6932V54.7018ZM27 57.6975H31H27ZM49 46.7132V52.7046V46.7132Z" stroke="white" stroke-width="2" stroke-miterlimit="10" stroke-linecap="round"/>
</svg>
