<svg width="40" height="37" viewBox="0 0 40 37" fill="none" xmlns="http://www.w3.org/2000/svg">
<path d="M20 0.998047C25.6033 0.998047 33.2418 1.08603 34.7852 1.21857C36.5302 2.23475 39.9667 5.74266 40 6.76048V8.44478C40 10.5786 37.9696 12.4526 36.1263 12.4526C33.9113 12.4526 32.0638 10.6506 32.0638 8.5119C32.0638 10.6506 30.2847 12.4526 28.0697 12.4526C25.8547 12.4526 24.1276 10.6506 24.1276 8.5119C24.1276 10.6506 22.2345 12.4526 20.0195 12.4526H19.9772C17.7622 12.4526 15.8691 10.6506 15.8691 8.5119C15.8691 10.6506 14.1437 12.4526 11.9303 12.4526C9.71534 12.4526 7.93295 10.6506 7.93295 8.5119C7.93295 10.6506 6.0887 12.4526 3.8737 12.4526C2.03203 12.4526 0 10.5786 0 8.44478V6.76048C0.0333328 5.74429 3.46984 2.23475 5.21484 1.21857C10.6382 1.03039 14.3967 0.998047 20 0.998047ZM24.1927 13.4945C24.4044 13.8561 24.6673 14.1876 24.974 14.4789C25.8106 15.2807 26.9561 15.7797 28.2194 15.7797C29.4344 15.7813 30.603 15.3134 31.4714 14.4789C31.7747 14.1876 32.0035 13.8769 32.2135 13.5137C32.4235 13.8769 32.7191 14.186 33.0241 14.4789C33.8924 15.3134 35.061 15.7813 36.276 15.7797C36.4277 15.7797 36.5839 15.7375 36.7122 15.6934C36.8906 17.513 36.9297 18.2476 36.9564 19.5158V19.5222C36.9597 20.1669 36.9628 20.6971 36.9661 21.4334C36.9311 25.2527 37.3507 33.8119 35.2507 35.9146C31.9957 36.6575 26.0083 36.9964 20 36.998C13.9917 36.9964 8.00435 36.6559 4.74935 35.9114C2.64935 33.8087 3.06886 25.2479 3.03386 21.4302C3.03719 20.6939 3.04029 20.1669 3.04362 19.5222V19.5158C3.07029 18.2476 3.18104 17.513 3.35938 15.6934C3.48771 15.7359 3.64716 15.7765 3.79883 15.7765C5.01383 15.7781 6.18245 15.3134 7.05078 14.4789C7.35411 14.1876 7.64641 13.8769 7.85807 13.5137H7.86133C8.073 13.8769 8.30185 14.1876 8.60352 14.4789C9.47185 15.3134 10.6405 15.7797 11.8555 15.7797C13.1188 15.7797 14.2642 15.2823 15.1009 14.4789C15.4059 14.1876 15.6656 13.8561 15.8789 13.4945C16.0889 13.8561 16.3487 14.1876 16.6504 14.4789C17.5187 15.3134 18.6873 15.7797 19.9023 15.7797C19.9457 15.7797 19.9925 15.7781 20.0358 15.7765C20.0791 15.7781 20.1243 15.7797 20.1693 15.7797C21.3843 15.7813 22.5529 15.3134 23.4212 14.4789C23.7246 14.1876 23.9844 13.8561 24.1927 13.4945ZM26.722 18.4164V18.4196C25.5353 18.4212 24.4805 18.4203 23.1738 19.8194C22.1465 19.7132 21.0739 19.6581 20 19.6596H19.9967C18.9228 19.6581 17.8502 19.7132 16.8229 19.8194C15.5163 18.4203 14.4647 18.4212 13.278 18.4196H13.2747V18.4164C12.7147 18.4164 10.4712 18.4161 8.90951 22.7246L7.23307 28.6373C5.98974 33.0342 7.63107 33.1404 9.67773 33.1436C12.7144 33.0324 14.3945 30.8693 14.3945 28.7044C16.0762 28.9744 18.0351 29.1103 19.9967 29.1103C21.9584 29.1103 23.9222 28.9744 25.6022 28.7044C25.6022 30.8693 27.2823 33.0324 30.319 33.1436C32.3673 33.1404 34.0103 33.0342 32.7669 28.6373L31.0872 22.7246C29.5256 18.4161 27.2837 18.4164 26.722 18.4164ZM20 21.6699C20.0017 21.6732 22.7084 24.1137 23.1934 24.981L21.4225 24.9107V26.4256C21.4225 26.496 20.71 26.4711 20 26.4384C19.2883 26.4711 18.5775 26.496 18.5775 26.4256V24.9107L16.8066 24.981C17.2916 24.1121 20 21.6699 20 21.6699Z" fill="#F1F1FF"/>
</svg>
