<svg width="31" height="30" viewBox="0 0 31 30" fill="none" xmlns="http://www.w3.org/2000/svg">
<path d="M30.9985 5.21465C30.9985 5.85435 30.7542 6.49412 30.2661 6.98225L27.2485 9.99985L20.9985 3.7498L24.0161 0.732198C24.9924 -0.244059 26.575 -0.244059 27.5513 0.732198L30.2661 3.44706C30.7542 3.93519 30.9985 4.57496 30.9985 5.21465ZM24.7485 12.4999L10.0732 27.1753C10.0732 27.1753 10.176 26.0281 9.74854 25.6006C9.32104 25.173 6.52354 25.525 5.99854 25C5.47354 24.475 5.84309 21.6951 5.44434 21.2963C5.04559 20.8976 3.82325 20.9252 3.82325 20.9252L18.4985 6.24982L24.7485 12.4999ZM5.99854 28.75L2.6587 29.9292C2.52689 29.9756 2.38826 29.9995 2.24854 30C1.91702 30 1.59908 29.8683 1.36466 29.6339C1.13024 29.3995 0.998541 29.0815 0.998541 28.75C0.999054 28.6103 1.02299 28.4716 1.06934 28.3398C1.07095 28.3358 1.07258 28.3317 1.07422 28.3276L1.08399 28.2959C1.08561 28.2934 1.08724 28.291 1.08887 28.2886L2.24854 25L4.12354 26.875L5.99854 28.75Z" fill="#605BFF"/>
</svg>
